<?xml version="1.0" encoding="UTF-8"?>
<!DOCTYPE svg  PUBLIC '-//W3C//DTD SVG 1.1//EN'  'http://www.w3.org/Graphics/SVG/1.1/DTD/svg11.dtd'>
<svg enable-background="new 0 0 287 107" version="1.1" viewBox="0 0 287 107" xml:space="preserve" xmlns="http://www.w3.org/2000/svg" xmlns:xlink="http://www.w3.org/1999/xlink">
	<defs>
		<rect id="b" width="287" height="106.27"/>
	</defs>
	<clipPath id="a">
		<use overflow="visible" xlink:href="#b"/>
	</clipPath>
	<path d="m1.049 52.743c-0.628-0.638-0.943-1.51-0.946-2.625-1e-3 -0.524 0.08-1.03 0.245-1.517 0.164-0.49 0.415-0.919 0.751-1.297 0.338-0.376 0.762-0.678 1.275-0.9 0.514-0.228 1.123-0.342 1.832-0.344 0.482-1e-3 0.952 0.019 1.414 0.061 0.46 0.043 0.91 0.099 1.35 0.173l0.013 5.719 1.477-4e-3 5e-3 1.67-4.467 0.011c-1.338 3e-3 -2.322-0.31-2.949-0.947m1.228-7.609c-0.323 1e-3 -0.591-0.115-0.806-0.346-0.215-0.228-0.322-0.506-0.323-0.826-1e-3 -0.309 0.105-0.58 0.319-0.811s0.482-0.348 0.803-0.348c0.32-1e-3 0.587 0.115 0.795 0.344 0.209 0.231 0.315 0.499 0.316 0.81 0 0.32-0.104 0.598-0.312 0.827-0.206 0.233-0.473 0.35-0.792 0.35m2.666 6.885-0.011-4.209c-0.171-0.041-0.336-0.072-0.498-0.087-0.16-0.016-0.299-0.024-0.418-0.024-0.558 1e-3 -0.995 0.189-1.317 0.567-0.32 0.374-0.479 0.883-0.478 1.527 1e-3 0.299 0.035 0.583 0.108 0.85 0.068 0.267 0.183 0.503 0.338 0.706 0.156 0.201 0.356 0.366 0.603 0.49 0.245 0.123 0.554 0.183 0.918 0.181l0.755-1e-3zm-0.048-6.89c-0.322 0-0.59-0.115-0.806-0.347-0.213-0.228-0.322-0.506-0.322-0.826-1e-3 -0.309 0.105-0.579 0.319-0.811 0.215-0.231 0.48-0.348 0.803-0.348 0.32-1e-3 0.586 0.115 0.795 0.344 0.211 0.231 0.315 0.5 0.315 0.81 1e-3 0.32-0.103 0.599-0.311 0.827-0.209 0.233-0.473 0.349-0.793 0.351" clip-path="url(#a)" fill="#58595B"/>
		<rect transform="matrix(-1 .0023 -.0023 -1 20.488 105.66)" x="8.143" y="52.006" width="4.081" height="1.67" clip-path="url(#a)" fill="#58595B"/>
		<rect transform="matrix(-1 .0023 -.0023 -1 28.005 105.63)" x="11.902" y="51.997" width="4.081" height="1.669" clip-path="url(#a)" fill="#58595B"/>
		<rect transform="matrix(-1 .0023 -.0023 -1 34.556 105.61)" x="15.177" y="51.99" width="4.081" height="1.669" clip-path="url(#a)" fill="#58595B"/>
		<rect transform="matrix(-1 .0023 -.0023 -1 42.076 105.58)" x="18.937" y="51.98" width="4.081" height="1.669" clip-path="url(#a)" fill="#58595B"/>
		<rect transform="matrix(-1 .0023 -.0023 -1 49.593 105.56)" x="22.696" y="51.971" width="4.081" height="1.67" clip-path="url(#a)" fill="#58595B"/>
		<rect transform="matrix(-1 .0023 -.0023 -1 57.114 105.53)" x="26.456" y="51.962" width="4.081" height="1.67" clip-path="url(#a)" fill="#58595B"/>
		<rect transform="matrix(-1 .0023 -.0023 -1 64.631 105.5)" x="30.215" y="51.954" width="4.081" height="1.669" clip-path="url(#a)" fill="#58595B"/>
		<rect transform="matrix(-1 .0023 -.0023 -1 72.15 105.48)" x="33.975" y="51.945" width="4.079" height="1.669" clip-path="url(#a)" fill="#58595B"/>
		<rect transform="matrix(-1 .0023 -.0023 -1 79.667 105.45)" x="37.732" y="51.936" width="4.082" height="1.67" clip-path="url(#a)" fill="#58595B"/>
		<rect transform="matrix(-1 .0023 -.0023 -1 87.188 105.42)" x="41.493" y="51.926" width="4.081" height="1.67" clip-path="url(#a)" fill="#58595B"/>
		<rect transform="matrix(-1 .0023 -.0023 -1 94.704 105.4)" x="45.252" y="51.917" width="4.079" height="1.67" clip-path="url(#a)" fill="#58595B"/>
		<rect transform="matrix(-1 .0023 -.0023 -1 102.22 105.37)" x="49.01" y="51.909" width="4.082" height="1.669" clip-path="url(#a)" fill="#58595B"/>
		<rect transform="matrix(-1 .0023 -.0023 -1 109.74 105.34)" x="52.771" y="51.9" width="4.079" height="1.669" clip-path="url(#a)" fill="#58595B"/>
	<path d="m56.527 51.895 5.463-0.013-4e-3 -1.445c-1e-3 -0.483-0.052-0.888-0.155-1.219-0.104-0.334-0.273-0.604-0.508-0.811-0.236-0.209-0.54-0.36-0.908-0.456-0.371-0.096-0.824-0.143-1.358-0.141-0.301 0-0.578 5e-3 -0.828 0.019-0.251 0.011-0.468 0.027-0.65 0.048l0.157-1.638c0.18-0.021 0.391-0.039 0.626-0.051 0.235-0.011 0.524-0.016 0.867-0.017 0.9-1e-3 1.661 0.099 2.283 0.3 0.62 0.203 1.126 0.479 1.511 0.831 0.386 0.352 0.663 0.767 0.831 1.245 0.167 0.474 0.251 0.986 0.252 1.533l8e-3 3.468-7.583 0.019-4e-3 -1.672z" clip-path="url(#a)" fill="#58595B"/>
	<path d="m67.834 57.539c-0.311 1e-3 -0.656-0.013-1.037-0.045-0.379-0.029-0.698-0.068-0.956-0.109l-0.116-1.816c0.364 0.084 0.738 0.147 1.117 0.191 0.38 0.041 0.758 0.061 1.133 0.06 0.89-1e-3 1.555-0.207 1.998-0.614 0.444-0.408 0.675-0.967 0.696-1.674l-0.948 1e-3c-0.727 3e-3 -1.339-0.088-1.833-0.275-0.492-0.187-0.891-0.44-1.198-0.759-0.307-0.323-0.526-0.699-0.662-1.139-0.135-0.439-0.203-0.906-0.204-1.398-1e-3 -0.514 0.075-1.011 0.231-1.494 0.153-0.482 0.399-0.915 0.735-1.295 0.338-0.382 0.763-0.687 1.283-0.92 0.518-0.228 1.137-0.347 1.854-0.348 0.483-1e-3 0.952 0.019 1.414 0.06 0.46 0.043 0.91 0.1 1.35 0.173l0.016 7.246c1e-3 0.472-0.08 0.951-0.243 1.446-0.167 0.492-0.442 0.94-0.827 1.343-0.383 0.403-0.887 0.73-1.506 0.983-0.621 0.254-1.387 0.382-2.297 0.383m2.831-5.678-9e-3 -4.209c-0.173-0.041-0.339-0.072-0.499-0.087-0.161-0.016-0.301-0.023-0.418-0.023-0.538 1e-3 -0.97 0.185-1.301 0.558-0.331 0.37-0.496 0.879-0.494 1.535 1e-3 0.706 0.16 1.254 0.478 1.645 0.316 0.391 0.812 0.584 1.486 0.582l0.757-1e-3z" clip-path="url(#a)" fill="#58595B"/>
	<path d="m74.311 51.853 4.706-0.011c0-0.376-0.048-0.782-0.139-1.221-0.092-0.439-0.279-0.868-0.558-1.294-0.28-0.42-0.674-0.814-1.183-1.175-0.51-0.363-1.182-0.651-2.018-0.863l0.156-1.752c1.083 0.136 1.99 0.418 2.725 0.835 0.735 0.423 1.326 0.922 1.778 1.499 0.451 0.578 0.778 1.209 0.978 1.894 0.199 0.683 0.299 1.358 0.301 2.022v0.048l1.029-3e-3 4e-3 1.67-7.776 0.017-3e-3 -1.666z" clip-path="url(#a)" fill="#58595B"/>
		<rect transform="matrix(-1 .0023 -.0023 -1 167.74 105.14)" x="81.768" y="51.831" width="4.081" height="1.669" clip-path="url(#a)" fill="#58595B"/>
		<rect transform="matrix(-1 .0023 -.0023 -1 175.25 105.11)" x="85.526" y="51.821" width="4.081" height="1.669" clip-path="url(#a)" fill="#58595B"/>
	<polygon points="89.283 51.817 91.485 51.812 91.461 41.869 93.518 41.864 93.546 53.477 89.287 53.487" clip-path="url(#a)" fill="#58595B"/>
	<path d="m96.685 43.479c-0.193-0.021-0.415-0.041-0.667-0.056-0.249-0.015-0.495-0.032-0.73-0.055l-4e-3 -1.285c0.514-0.075 1.069-0.136 1.662-0.18s1.191-0.056 1.792-0.036l0.028 11.597-2.057 5e-3 -0.024-9.99z" clip-path="url(#a)" fill="#58595B"/>
	<path d="m102.24 55.69c0.675-1e-3 1.185-0.179 1.533-0.532 0.347-0.356 0.519-0.946 0.518-1.768l-9e-3 -3.36c0-0.494 0.056-0.986 0.165-1.486 0.113-0.498 0.312-0.947 0.6-1.351 0.288-0.4 0.682-0.731 1.179-0.99 0.498-0.257 1.13-0.388 1.904-0.39 0.482-1e-3 0.922 0.081 1.323 0.245 0.404 0.165 0.75 0.412 1.041 0.736 0.289 0.326 0.514 0.735 0.676 1.226 0.163 0.494 0.245 1.067 0.247 1.72l4e-3 2.025 1.509-4e-3 4e-3 1.67-4.626 0.011c-0.203 0-0.416-0.017-0.643-0.055-0.223-0.035-0.435-0.087-0.635-0.149-0.197-0.064-0.375-0.141-0.53-0.231-0.156-0.092-0.271-0.191-0.348-0.299 0.023 0.076 0.044 0.144 0.067 0.209 0.021 0.053 0.036 0.113 0.049 0.177 9e-3 0.063 0.015 0.121 0.015 0.175 3e-3 0.783-0.115 1.439-0.348 1.97-0.235 0.531-0.544 0.955-0.928 1.278s-0.828 0.556-1.333 0.703c-0.503 0.147-1.022 0.219-1.558 0.22l0.124-1.75zm7.124-3.921-5e-3 -2.313c0-0.256-0.024-0.506-0.075-0.747-0.048-0.24-0.129-0.455-0.241-0.643-0.113-0.188-0.261-0.338-0.444-0.447-0.18-0.111-0.407-0.168-0.675-0.167-0.224 0-0.431 0.053-0.616 0.161-0.188 0.108-0.35 0.249-0.483 0.427-0.132 0.177-0.233 0.386-0.303 0.626-0.069 0.241-0.103 0.498-0.103 0.764 3e-3 0.89 0.169 1.502 0.502 1.838 0.334 0.338 0.875 0.504 1.625 0.502l0.818-1e-3z" clip-path="url(#a)" fill="#58595B"/>
		<rect transform="matrix(-1 .0023 -.0023 -1 229.42 104.92)" x="112.61" y="51.757" width="4.081" height="1.669" clip-path="url(#a)" fill="#58595B"/>
		<rect transform="matrix(-1 .0023 -.0023 -1 236.94 104.89)" x="116.37" y="51.748" width="4.081" height="1.669" clip-path="url(#a)" fill="#58595B"/>
		<rect transform="matrix(-1 .0023 -.0023 -1 244.46 104.87)" x="120.13" y="51.739" width="4.081" height="1.67" clip-path="url(#a)" fill="#58595B"/>
		<rect transform="matrix(-1 .0023 -.0023 -1 251.98 104.84)" x="123.89" y="51.73" width="4.081" height="1.67" clip-path="url(#a)" fill="#58595B"/>
		<rect transform="matrix(-1 .0023 -.0023 -1 259.5 104.81)" x="127.65" y="51.72" width="4.081" height="1.67" clip-path="url(#a)" fill="#58595B"/>
		<rect transform="matrix(-1 .0023 -.0023 -1 267.02 104.79)" x="131.41" y="51.712" width="4.081" height="1.669" clip-path="url(#a)" fill="#58595B"/>
		<rect transform="matrix(-1 .0023 -.0023 -1 274.53 104.76)" x="135.17" y="51.703" width="4.081" height="1.669" clip-path="url(#a)" fill="#58595B"/>
		<rect transform="matrix(-1 .0023 -.0023 -1 282.05 104.74)" x="138.93" y="51.694" width="4.081" height="1.67" clip-path="url(#a)" fill="#58595B"/>
		<rect transform="matrix(-1 .0023 -.0023 -1 289.57 104.71)" x="142.68" y="51.685" width="4.081" height="1.67" clip-path="url(#a)" fill="#58595B"/>
		<rect transform="matrix(-1 .0023 -.0023 -1 297.09 104.68)" x="146.44" y="51.676" width="4.081" height="1.67" clip-path="url(#a)" fill="#58595B"/>
		<rect transform="matrix(-1 .0023 -.0023 -1 304.61 104.65)" x="150.2" y="51.667" width="4.081" height="1.669" clip-path="url(#a)" fill="#58595B"/>
	<path d="m153.96 51.663 5.462-0.013-4e-3 -1.445c0-0.483-0.052-0.89-0.153-1.221-0.104-0.334-0.273-0.603-0.51-0.81-0.235-0.211-0.539-0.362-0.908-0.456-0.371-0.097-0.823-0.144-1.357-0.143-0.301 1e-3 -0.578 7e-3 -0.828 0.019-0.252 0.012-0.47 0.028-0.65 0.049l0.156-1.64c0.18-0.02 0.391-0.037 0.627-0.051 0.233-9e-3 0.523-0.016 0.866-0.016 0.902-3e-3 1.662 0.097 2.284 0.299 0.619 0.204 1.126 0.479 1.51 0.832 0.386 0.352 0.663 0.767 0.831 1.245 0.167 0.474 0.251 0.985 0.252 1.531l5e-3 1.8 1.51-3e-3 4e-3 1.669-9.093 0.021-4e-3 -1.667zm3.145 5.181c-0.322 0-0.596-0.113-0.828-0.343-0.229-0.231-0.346-0.507-0.347-0.827 0-0.311 0.115-0.582 0.343-0.811 0.231-0.232 0.504-0.35 0.827-0.35 0.32-1e-3 0.595 0.115 0.819 0.346 0.225 0.228 0.34 0.499 0.34 0.81 1e-3 0.32-0.112 0.596-0.336 0.828-0.225 0.231-0.497 0.347-0.818 0.347" clip-path="url(#a)" fill="#58595B"/>
		<rect transform="matrix(-1 .0023 -.0023 -1 329.67 104.57)" x="162.74" y="51.637" width="4.081" height="1.669" clip-path="url(#a)" fill="#58595B"/>
		<rect transform="matrix(-1 .0023 -.0023 -1 337.19 104.54)" x="166.49" y="51.628" width="4.081" height="1.67" clip-path="url(#a)" fill="#58595B"/>
	<path d="m170.25 51.624 0.852-3e-3c1.103-1e-3 2.108-0.207 3.019-0.616-0.237-0.224-0.463-0.442-0.678-0.658-0.213-0.213-0.442-0.416-0.683-0.608s-0.514-0.374-0.812-0.543c-0.301-0.173-0.66-0.331-1.078-0.48l0.221-1.753c0.64-0.451 1.309-0.811 2.004-1.083 0.695-0.267 1.409-0.402 2.137-0.404 0.588-1e-3 1.102 0.073 1.542 0.221 0.439 0.148 0.806 0.351 1.102 0.607 0.296 0.257 0.515 0.558 0.66 0.907 0.144 0.347 0.219 0.723 0.22 1.133 1e-3 0.47-0.132 0.931-0.399 1.382-0.265 0.45-0.639 0.884-1.122 1.303 0.301 0.171 0.586 0.311 0.855 0.416 0.267 0.105 0.594 0.159 0.978 0.157l0.53-1e-3 4e-3 1.67-0.61 1e-3c-0.738 1e-3 -1.39-0.093-1.952-0.291-0.563-0.197-1.071-0.46-1.521-0.791-0.643 0.343-1.323 0.614-2.046 0.807-0.723 0.195-1.442 0.291-2.158 0.293l-1.062 3e-3 -3e-3 -1.669zm5.54-1.588c0.288-0.247 0.504-0.504 0.648-0.774 0.143-0.267 0.215-0.524 0.215-0.77-1e-3 -0.396-0.14-0.712-0.42-0.947-0.28-0.233-0.654-0.352-1.126-0.351-0.418 0-0.79 0.068-1.115 0.204-0.327 0.135-0.636 0.297-0.923 0.491 0.277 0.105 0.528 0.231 0.748 0.376 0.22 0.144 0.434 0.304 0.643 0.48 0.211 0.176 0.419 0.371 0.628 0.586 0.21 0.214 0.443 0.45 0.702 0.705" clip-path="url(#a)" fill="#58595B"/>
		<rect transform="matrix(-1 .0023 -.0023 -1 362.76 104.45)" x="179.28" y="51.597" width="4.079" height="1.67" clip-path="url(#a)" fill="#58595B"/>
		<rect transform="matrix(-1 .0023 -.0023 -1 370.28 104.42)" x="183.04" y="51.588" width="4.081" height="1.67" clip-path="url(#a)" fill="#58595B"/>
	<path d="m186.8 51.585 0.643-3e-3c0.203 0 0.382-0.053 0.538-0.16s0.283-0.251 0.384-0.427c0.101-0.177 0.179-0.376 0.232-0.596s0.079-0.436 0.079-0.65c-1e-3 -0.708 0.087-1.322 0.268-1.841 0.18-0.52 0.438-0.947 0.776-1.286 0.336-0.338 0.74-0.591 1.21-0.759 0.472-0.167 0.998-0.251 1.574-0.252 0.536-1e-3 1.009 0.091 1.414 0.277 0.408 0.187 0.75 0.452 1.022 0.8 0.276 0.347 0.484 0.762 0.631 1.245 0.145 0.48 0.22 1.017 0.221 1.605l8e-3 3.694-3.15 8e-3c-0.502 0-0.942-0.039-1.317-0.124-0.375-0.084-0.694-0.195-0.958-0.328-0.261-0.131-0.471-0.281-0.628-0.447-0.153-0.167-0.264-0.324-0.33-0.474-0.148 0.45-0.404 0.792-0.767 1.03-0.364 0.239-0.879 0.355-1.542 0.356h-0.305l-3e-3 -1.668zm6.94-0.017-5e-3 -2.313c-1e-3 -0.686-0.136-1.191-0.404-1.518-0.268-0.324-0.612-0.487-1.03-0.486-0.43 0-0.787 0.185-1.075 0.556-0.289 0.37-0.432 0.846-0.431 1.421 1e-3 0.848 0.16 1.45 0.471 1.809 0.311 0.358 0.863 0.535 1.657 0.532l0.817-1e-3z" clip-path="url(#a)" fill="#58595B"/>
	<path d="m0.946 70.497c-0.628-0.635-0.943-1.509-0.946-2.624-1e-3 -0.524 0.08-1.029 0.245-1.517 0.164-0.49 0.415-0.92 0.751-1.297 0.338-0.376 0.762-0.676 1.275-0.902 0.514-0.228 1.123-0.34 1.832-0.342 0.483-1e-3 0.952 0.017 1.414 0.06 0.46 0.041 0.91 0.099 1.35 0.175l0.013 5.718 1.477-3e-3 4e-3 1.67-4.466 0.011c-1.336 4e-3 -2.322-0.311-2.949-0.949m1.229-7.608c-0.324 0-0.592-0.115-0.806-0.346-0.215-0.227-0.322-0.506-0.323-0.826-1e-3 -0.31 0.105-0.58 0.319-0.811 0.213-0.232 0.482-0.347 0.803-0.348 0.322 0 0.586 0.113 0.795 0.344 0.209 0.229 0.315 0.499 0.316 0.81 0 0.32-0.104 0.599-0.312 0.827-0.208 0.233-0.472 0.349-0.792 0.35m2.665 6.885-0.011-4.21c-0.171-0.041-0.336-0.071-0.498-0.087-0.16-0.015-0.3-0.023-0.418-0.023-0.558 1e-3 -0.995 0.189-1.317 0.568-0.32 0.374-0.48 0.882-0.478 1.526 0 0.297 0.036 0.583 0.107 0.851 0.069 0.265 0.184 0.502 0.34 0.704 0.155 0.201 0.355 0.366 0.602 0.49 0.245 0.12 0.554 0.183 0.916 0.181h0.757zm-0.048-6.891c-0.322 1e-3 -0.59-0.113-0.806-0.346-0.213-0.227-0.322-0.506-0.323-0.824 0-0.311 0.107-0.58 0.32-0.812 0.215-0.231 0.48-0.347 0.803-0.348 0.32 0 0.586 0.113 0.795 0.344 0.211 0.231 0.315 0.5 0.315 0.81 1e-3 0.32-0.101 0.599-0.311 0.827-0.207 0.233-0.472 0.349-0.793 0.349" clip-path="url(#a)" fill="#58595B"/>
		<rect transform="matrix(-1 .0023 -.0023 -1 20.324 141.17)" x="8.041" y="69.762" width="4.081" height="1.67" clip-path="url(#a)" fill="#58595B"/>
		<rect transform="matrix(-1 .0023 -.0023 -1 27.841 141.14)" x="11.799" y="69.753" width="4.081" height="1.67" clip-path="url(#a)" fill="#58595B"/>
		<rect transform="matrix(-1 .0023 -.0023 -1 35.357 141.12)" x="15.558" y="69.744" width="4.079" height="1.67" clip-path="url(#a)" fill="#58595B"/>
		<rect transform="matrix(-1 .0023 -.0023 -1 42.879 141.09)" x="19.318" y="69.735" width="4.081" height="1.67" clip-path="url(#a)" fill="#58595B"/>
	<path d="m23.923 74.917c-0.323 1e-3 -0.591-0.112-0.803-0.344-0.217-0.229-0.326-0.504-0.326-0.827-1e-3 -0.309 0.105-0.582 0.322-0.81 0.212-0.232 0.479-0.347 0.8-0.347 0.322-1e-3 0.586 0.112 0.796 0.343 0.209 0.228 0.315 0.498 0.316 0.81 0 0.322-0.104 0.596-0.312 0.827-0.209 0.233-0.472 0.348-0.793 0.348m-0.849-5.187 2.249-5e-3 -0.013-5.718 2.04-4e-3 0.013 5.716 1.51-4e-3 4e-3 1.672-5.799 0.013-4e-3 -1.67zm3.466 5.182c-0.32 0-0.588-0.112-0.804-0.346-0.215-0.229-0.323-0.504-0.323-0.826-1e-3 -0.311 0.105-0.582 0.32-0.811 0.213-0.232 0.48-0.347 0.802-0.347 0.322-1e-3 0.588 0.112 0.796 0.343 0.209 0.228 0.313 0.499 0.315 0.81 1e-3 0.322-0.103 0.596-0.311 0.827-0.208 0.235-0.473 0.349-0.795 0.35" clip-path="url(#a)" fill="#58595B"/>
	<path d="m28.553 69.717 2.249-5e-3 -0.013-5.718 2.04-4e-3 0.017 7.388-4.289 9e-3 -4e-3 -1.67zm2.277 5.184c-0.32 0-0.598-0.112-0.827-0.346-0.231-0.229-0.347-0.503-0.347-0.826-1e-3 -0.311 0.112-0.582 0.343-0.811 0.228-0.232 0.506-0.346 0.826-0.347 0.323-1e-3 0.595 0.112 0.822 0.343 0.223 0.229 0.338 0.499 0.339 0.81 0 0.322-0.113 0.596-0.335 0.827-0.227 0.236-0.498 0.35-0.821 0.35" clip-path="url(#a)" fill="#58595B"/>
	<path d="m34.011 75.393c-0.289 0-0.568-0.016-0.835-0.047l0.156-1.672c0.235 0.031 0.471 0.047 0.707 0.045 0.674-1e-3 1.171-0.161 1.493-0.476 0.321-0.318 0.48-0.891 0.479-1.726l-0.019-7.535 2.057-5e-3 0.013 5.718 1.507-4e-3 4e-3 1.672-1.507 3e-3v0.064c1e-3 0.515-0.057 1.01-0.173 1.487-0.116 0.476-0.327 0.896-0.631 1.262-0.305 0.366-0.72 0.659-1.243 0.879-0.524 0.221-1.195 0.333-2.008 0.335" clip-path="url(#a)" fill="#58595B"/>
		<rect transform="matrix(-1 .0023 -.0023 -1 82.749 140.95)" x="39.253" y="69.687" width="4.081" height="1.67" clip-path="url(#a)" fill="#58595B"/>
	<path d="m43.012 69.683 0.851-3e-3c1.105-1e-3 2.109-0.207 3.02-0.615-0.237-0.227-0.463-0.444-0.678-0.659-0.213-0.212-0.442-0.416-0.683-0.608s-0.512-0.374-0.812-0.543c-0.301-0.173-0.662-0.331-1.079-0.48l0.221-1.753c0.642-0.451 1.31-0.81 2.005-1.081 0.695-0.269 1.409-0.406 2.137-0.407 0.588-1e-3 1.102 0.073 1.542 0.221 0.44 0.149 0.807 0.352 1.101 0.608 0.296 0.256 0.516 0.558 0.662 0.906 0.145 0.348 0.219 0.723 0.22 1.133 1e-3 0.47-0.133 0.931-0.399 1.382-0.265 0.451-0.64 0.886-1.122 1.303 0.301 0.172 0.584 0.311 0.854 0.416 0.268 0.105 0.595 0.159 0.979 0.157l0.53-1e-3 4e-3 1.672-0.608 1e-3c-0.739 1e-3 -1.39-0.095-1.953-0.293-0.563-0.196-1.07-0.458-1.521-0.79-0.642 0.343-1.323 0.612-2.046 0.806-0.723 0.195-1.442 0.293-2.16 0.295l-1.061 3e-3 -4e-3 -1.67zm5.538-1.588c0.289-0.248 0.504-0.504 0.65-0.774 0.141-0.267 0.213-0.524 0.212-0.77 0-0.395-0.139-0.712-0.418-0.947-0.28-0.235-0.654-0.352-1.126-0.351-0.418 1e-3 -0.791 0.068-1.115 0.204-0.327 0.136-0.636 0.297-0.923 0.491 0.279 0.107 0.528 0.231 0.747 0.376 0.221 0.144 0.435 0.305 0.644 0.48 0.209 0.177 0.42 0.371 0.628 0.586 0.209 0.213 0.444 0.449 0.701 0.705" clip-path="url(#a)" fill="#58595B"/>
		<rect transform="matrix(-1 .0023 -.0023 -1 108.32 140.86)" x="52.041" y="69.656" width="4.081" height="1.67" clip-path="url(#a)" fill="#58595B"/>
	<polygon points="55.799 69.653 58 69.647 57.978 59.703 60.033 59.698 60.061 71.313 55.803 71.323" clip-path="url(#a)" fill="#58595B"/>
	<path d="m63.2 61.313c-0.195-0.021-0.415-0.039-0.667-0.056-0.251-0.013-0.495-0.032-0.731-0.055l-3e-3 -1.285c0.514-0.075 1.067-0.135 1.662-0.179 0.594-0.044 1.191-0.056 1.792-0.037l0.028 11.599-2.057 4e-3 -0.024-9.991z" clip-path="url(#a)" fill="#58595B"/>
	<path d="m71.65 70.329c-0.63-0.635-0.944-1.509-0.947-2.624-1e-3 -0.524 0.08-1.029 0.245-1.517 0.165-0.49 0.415-0.92 0.751-1.297 0.338-0.376 0.763-0.676 1.274-0.902 0.516-0.228 1.125-0.34 1.833-0.342 0.482-1e-3 0.952 0.017 1.413 0.06 0.462 0.041 0.911 0.099 1.35 0.175l0.013 5.718 1.478-4e-3 4e-3 1.672-4.466 0.011c-1.338 2e-3 -2.322-0.313-2.948-0.95m1.226-7.608c-0.323 0-0.591-0.115-0.804-0.346-0.215-0.227-0.323-0.506-0.323-0.826-1e-3 -0.311 0.105-0.58 0.319-0.811 0.212-0.232 0.482-0.347 0.803-0.348 0.32 0 0.586 0.113 0.795 0.344 0.209 0.229 0.313 0.499 0.315 0.81 1e-3 0.319-0.103 0.599-0.311 0.827-0.208 0.232-0.474 0.348-0.794 0.35m2.667 6.885-0.011-4.21c-0.171-0.041-0.336-0.071-0.498-0.087-0.161-0.015-0.3-0.023-0.418-0.023-0.558 1e-3 -0.994 0.189-1.317 0.567-0.322 0.374-0.479 0.883-0.478 1.526 1e-3 0.299 0.035 0.584 0.107 0.852 0.069 0.265 0.184 0.502 0.34 0.704 0.155 0.201 0.355 0.364 0.602 0.49 0.247 0.12 0.552 0.181 0.916 0.181h0.757zm-0.048-6.892c-0.323 0-0.59-0.113-0.806-0.346-0.213-0.227-0.32-0.506-0.322-0.826-1e-3 -0.309 0.105-0.579 0.317-0.811 0.215-0.232 0.482-0.347 0.804-0.348 0.32 0 0.586 0.113 0.795 0.344 0.211 0.231 0.313 0.5 0.315 0.81 1e-3 0.32-0.101 0.599-0.311 0.827-0.207 0.234-0.472 0.35-0.792 0.35" clip-path="url(#a)" fill="#58595B"/>
		<rect transform="matrix(-1 .0023 -.0023 -1 161.72 140.67)" x="78.741" y="69.593" width="4.081" height="1.67" clip-path="url(#a)" fill="#58595B"/>
		<rect transform="matrix(-1 .0023 -.0023 -1 169.24 140.64)" x="82.501" y="69.584" width="4.081" height="1.67" clip-path="url(#a)" fill="#58595B"/>
		<rect transform="matrix(-1 .0023 -.0023 -1 176.76 140.62)" x="86.259" y="69.575" width="4.082" height="1.67" clip-path="url(#a)" fill="#58595B"/>
		<rect transform="matrix(-1 .0023 -.0023 -1 184.28 140.59)" x="90.018" y="69.566" width="4.081" height="1.67" clip-path="url(#a)" fill="#58595B"/>
	<path d="m93.777 69.561 0.848-1e-3c1.105-3e-3 2.11-0.208 3.022-0.616-0.236-0.225-0.463-0.444-0.678-0.659-0.213-0.211-0.442-0.415-0.683-0.607-0.241-0.193-0.512-0.375-0.812-0.544-0.301-0.173-0.662-0.331-1.078-0.48l0.219-1.752c0.642-0.451 1.311-0.811 2.006-1.081 0.695-0.271 1.409-0.407 2.137-0.408 0.59-1e-3 1.103 0.073 1.542 0.221 0.44 0.149 0.807 0.354 1.102 0.608 0.296 0.256 0.515 0.559 0.66 0.906 0.145 0.348 0.219 0.724 0.22 1.133 1e-3 0.471-0.132 0.932-0.399 1.383-0.265 0.45-0.64 0.884-1.121 1.302 0.299 0.172 0.584 0.311 0.852 0.418 0.268 0.104 0.595 0.157 0.979 0.157l0.531-1e-3 4e-3 1.67-0.61 1e-3c-0.739 3e-3 -1.391-0.095-1.953-0.293-0.563-0.196-1.07-0.458-1.521-0.79-0.642 0.343-1.322 0.614-2.046 0.807-0.723 0.195-1.442 0.293-2.16 0.295l-1.059 3e-3 -2e-3 -1.672zm5.538-1.588c0.289-0.247 0.506-0.503 0.65-0.772 0.143-0.268 0.213-0.526 0.213-0.77-1e-3 -0.396-0.139-0.714-0.419-0.949-0.279-0.235-0.654-0.352-1.126-0.351-0.416 1e-3 -0.791 0.069-1.115 0.205-0.328 0.135-0.635 0.296-0.922 0.491 0.276 0.105 0.527 0.231 0.746 0.375 0.221 0.144 0.436 0.307 0.644 0.48 0.211 0.177 0.419 0.371 0.628 0.587 0.208 0.213 0.443 0.45 0.701 0.704m-1.057-5.7c-0.322 1e-3 -0.598-0.113-0.83-0.343-0.231-0.229-0.346-0.506-0.347-0.827 0-0.308 0.113-0.58 0.343-0.812 0.231-0.231 0.506-0.346 0.828-0.346 0.32-1e-3 0.594 0.111 0.819 0.342 0.225 0.232 0.339 0.503 0.339 0.811 1e-3 0.321-0.111 0.598-0.335 0.828-0.223 0.231-0.497 0.347-0.817 0.347" clip-path="url(#a)" fill="#58595B"/>
		<rect transform="matrix(-1 .0023 -.0023 -1 209.85 140.5)" x="102.81" y="69.535" width="4.079" height="1.67" clip-path="url(#a)" fill="#58595B"/>
	<polygon points="106.56 69.531 108.76 69.525 108.74 59.582 110.8 59.578 110.82 69.521 112.33 69.517 112.33 71.188 106.57 71.201" clip-path="url(#a)" fill="#58595B"/>
	<polygon points="112.01 69.518 114.21 69.513 114.19 59.569 116.24 59.564 116.27 71.179 112.01 71.189" clip-path="url(#a)" fill="#58595B"/>
	<path d="m134.16 67.249c-1e-3 -0.739-0.136-1.261-0.404-1.566-0.269-0.305-0.739-0.456-1.415-0.455-0.117 0-0.229 7e-3 -0.336 0.017-0.108 0.011-0.204 0.023-0.289 0.033l0.013 5.863-3.887 9e-3c-1.211 3e-3 -2.21-0.124-2.999-0.379-0.786-0.255-1.414-0.6-1.881-1.039-0.466-0.439-0.795-0.946-0.983-1.522-0.189-0.58-0.283-1.183-0.284-1.816-1e-3 -0.343 0.027-0.72 0.084-1.134 0.057-0.412 0.129-0.79 0.215-1.133l2.166-0.406c-0.149 0.384-0.255 0.774-0.317 1.165-0.061 0.391-0.095 0.811-0.093 1.261 1e-3 0.524 0.071 0.993 0.212 1.405 0.14 0.414 0.379 0.763 0.718 1.051 0.338 0.288 0.787 0.506 1.353 0.655 0.56 0.151 1.259 0.223 2.096 0.22l1.558-4e-3 -0.012-5.655c0.436-0.096 0.883-0.172 1.333-0.228 0.448-0.053 0.914-0.081 1.395-0.083 0.739-1e-3 1.353 0.085 1.841 0.261 0.488 0.175 0.876 0.42 1.166 0.743 0.289 0.322 0.495 0.711 0.614 1.171s0.179 0.974 0.18 1.542l5e-3 2.233 1.51-4e-3 4e-3 1.67-3.55 9e-3 -0.013-3.884zm-8.077 7.425c-0.323 0-0.59-0.113-0.804-0.346-0.216-0.229-0.323-0.504-0.324-0.826-1e-3 -0.311 0.105-0.582 0.32-0.811 0.213-0.232 0.48-0.347 0.803-0.347 0.321-1e-3 0.584 0.112 0.795 0.343 0.209 0.229 0.315 0.499 0.316 0.81 0 0.322-0.104 0.596-0.312 0.827-0.21 0.234-0.473 0.349-0.794 0.35m2.617-6e-3c-0.322 0-0.59-0.112-0.803-0.346-0.216-0.229-0.324-0.503-0.326-0.826 0-0.311 0.107-0.582 0.322-0.811 0.212-0.232 0.48-0.346 0.802-0.347s0.587 0.112 0.796 0.343c0.209 0.229 0.315 0.499 0.315 0.81 1e-3 0.323-0.103 0.596-0.311 0.827-0.208 0.235-0.472 0.35-0.795 0.35" clip-path="url(#a)" fill="#58595B"/>
		<rect transform="matrix(-1 .0023 -.0023 -1 279.03 140.26)" x="137.39" y="69.452" width="4.082" height="1.67" clip-path="url(#a)" fill="#58595B"/>
		<rect transform="matrix(-1 .0023 -.0023 -1 286.55 140.23)" x="141.15" y="69.444" width="4.082" height="1.67" clip-path="url(#a)" fill="#58595B"/>
		<rect transform="matrix(-1 .0023 -.0023 -1 294.07 140.2)" x="144.91" y="69.435" width="4.081" height="1.67" clip-path="url(#a)" fill="#58595B"/>
	<path d="m148.67 69.431 5.463-0.013-4e-3 -1.445c-1e-3 -0.483-0.052-0.888-0.153-1.221-0.105-0.332-0.276-0.603-0.51-0.811-0.237-0.209-0.54-0.359-0.908-0.455-0.372-0.095-0.824-0.143-1.357-0.141-0.303 0-0.579 7e-3 -0.831 0.019-0.251 0.011-0.467 0.027-0.648 0.049l0.157-1.64c0.18-0.021 0.39-0.04 0.626-0.049 0.233-0.011 0.524-0.016 0.866-0.017 0.902-1e-3 1.662 0.099 2.284 0.299 0.62 0.201 1.126 0.479 1.511 0.834 0.387 0.351 0.663 0.764 0.831 1.242 0.167 0.474 0.251 0.986 0.252 1.533l4e-3 1.798 1.511-3e-3 4e-3 1.67-9.094 0.021-4e-3 -1.67zm3.085-6.899c-0.32 0-0.598-0.113-0.828-0.346-0.231-0.227-0.347-0.506-0.348-0.826 0-0.311 0.115-0.579 0.344-0.811s0.507-0.347 0.827-0.348c0.322 0 0.594 0.113 0.82 0.344 0.224 0.231 0.339 0.499 0.339 0.81 1e-3 0.319-0.112 0.599-0.335 0.827-0.226 0.233-0.496 0.349-0.819 0.35" clip-path="url(#a)" fill="#58595B"/>
		<rect transform="matrix(-1 .0023 -.0023 -1 319.13 140.12)" x="157.44" y="69.405" width="4.081" height="1.67" clip-path="url(#a)" fill="#58595B"/>
	<path d="m161.71 74.588c-0.322 1e-3 -0.59-0.112-0.804-0.344-0.215-0.229-0.323-0.504-0.324-0.827 0-0.309 0.107-0.582 0.32-0.81 0.213-0.232 0.482-0.347 0.802-0.347 0.323-1e-3 0.588 0.112 0.798 0.343 0.208 0.228 0.315 0.498 0.316 0.81 0 0.322-0.104 0.596-0.312 0.827-0.209 0.234-0.474 0.348-0.796 0.348m-0.511-5.188 2.249-5e-3 -0.013-5.716 2.04-5e-3 0.019 7.388-4.29 0.011-5e-3 -1.673zm3.129 5.183c-0.32 0-0.588-0.112-0.803-0.346-0.215-0.229-0.322-0.504-0.323-0.826 0-0.311 0.105-0.582 0.319-0.811 0.213-0.232 0.48-0.347 0.802-0.347 0.323-1e-3 0.588 0.112 0.796 0.343 0.209 0.228 0.315 0.499 0.315 0.81 1e-3 0.322-0.104 0.596-0.311 0.827-0.207 0.235-0.473 0.349-0.795 0.35" clip-path="url(#a)" fill="#58595B"/>
	<path d="m166.66 75.076c-0.288 0-0.568-0.016-0.835-0.047l0.155-1.672c0.236 0.031 0.472 0.047 0.708 0.045 0.674-1e-3 1.171-0.161 1.493-0.476 0.322-0.318 0.48-0.892 0.479-1.728l-0.019-7.533 2.057-5e-3 0.019 7.452c1e-3 0.515-0.059 1.01-0.175 1.487-0.116 0.476-0.327 0.896-0.631 1.262-0.305 0.366-0.72 0.659-1.243 0.879-0.525 0.223-1.196 0.335-2.008 0.336" clip-path="url(#a)" fill="#58595B"/>
	<path d="m173.53 61.049c-0.193-0.021-0.415-0.039-0.667-0.055-0.251-0.015-0.494-0.033-0.728-0.056l-4e-3 -1.285c0.512-0.073 1.066-0.135 1.662-0.179 0.594-0.044 1.191-0.056 1.79-0.037l0.024 9.928 1.351-3e-3 4e-3 1.67-3.408 9e-3 -0.024-9.992z" clip-path="url(#a)" fill="#58595B"/>
		<rect transform="matrix(-1 .0023 -.0023 -1 357.52 139.98)" x="176.64" y="69.359" width="4.081" height="1.67" clip-path="url(#a)" fill="#58595B"/>
	<path d="m180.4 69.354 2.249-5e-3 -0.015-5.718 2.041-4e-3 0.013 5.718 1.51-4e-3 4e-3 1.67-5.799 0.015-3e-3 -1.672zm1.606-6.894c-0.323 0-0.59-0.115-0.803-0.346-0.217-0.227-0.324-0.506-0.326-0.826-1e-3 -0.311 0.105-0.58 0.322-0.811 0.212-0.232 0.479-0.347 0.8-0.348 0.321 0 0.586 0.113 0.796 0.344 0.209 0.229 0.316 0.499 0.316 0.81 1e-3 0.319-0.104 0.599-0.312 0.827-0.208 0.233-0.471 0.349-0.793 0.35m2.617-7e-3c-0.319 0-0.587-0.113-0.802-0.346-0.217-0.227-0.324-0.506-0.324-0.826-1e-3 -0.309 0.104-0.579 0.32-0.811 0.213-0.232 0.482-0.347 0.8-0.348 0.323 0 0.588 0.113 0.796 0.344 0.209 0.231 0.316 0.5 0.316 0.81 1e-3 0.32-0.103 0.599-0.312 0.827-0.206 0.234-0.472 0.35-0.794 0.35" clip-path="url(#a)" fill="#58595B"/>
	<polygon points="185.88 69.342 188.08 69.337 188.05 59.393 190.11 59.387 190.14 71.003 185.88 71.012" clip-path="url(#a)" fill="#58595B"/>
	<path d="m193.28 61.002c-0.193-0.021-0.416-0.039-0.666-0.056-0.252-0.013-0.496-0.032-0.73-0.055l-3e-3 -1.285c0.511-0.075 1.065-0.135 1.661-0.179 0.594-0.044 1.19-0.056 1.79-0.037l0.028 11.599-2.057 4e-3 -0.023-9.991z" clip-path="url(#a)" fill="#58595B"/>
	<path d="m0.541 82.155 6.663-0.016 4e-3 1.986c1e-3 0.495-0.032 0.884-0.099 1.163l0.021 0.012c0.37-0.807 1.023-1.211 1.962-1.214 1.146-3e-3 1.721 0.611 1.724 1.841l9e-3 4.046-1.231 3e-3 -9e-3 -3.706c-1e-3 -0.767-0.289-1.151-0.866-1.15-0.431 1e-3 -0.79 0.203-1.077 0.604-0.287 0.402-0.43 0.896-0.428 1.482l8e-3 2.775-1.242 5e-3 -0.016-6.777-2.004 4e-3 0.016 6.777-1.266 3e-3 -0.016-6.776-2.15 5e-3 -3e-3 -1.067z" clip-path="url(#a)" fill="#58595B"/>
	<path d="m17.182 87.218-3.671 8e-3c-0.032 1.238 0.539 1.854 1.712 1.852 0.579-1e-3 1.133-0.115 1.662-0.339l0.167 0.965c-0.646 0.247-1.329 0.372-2.048 0.374-1.842 5e-3 -2.765-0.981-2.771-2.956-1e-3 -0.888 0.231-1.612 0.699-2.169 0.487-0.584 1.139-0.876 1.956-0.879 0.783-1e-3 1.379 0.233 1.79 0.706 0.367 0.423 0.552 0.987 0.554 1.696 1e-3 0.274-0.016 0.521-0.05 0.742m-1.194-0.86c0.011-0.427-0.091-0.762-0.303-1.003-0.208-0.235-0.498-0.352-0.864-0.351-0.351 1e-3 -0.642 0.121-0.872 0.36-0.235 0.243-0.378 0.576-0.43 0.999l2.469-5e-3z" clip-path="url(#a)" fill="#58595B"/>
	<path d="m26.125 88.955c-0.77 0.687-1.813 1.031-3.13 1.035-0.318 0-0.688-4e-3 -1.113-0.015l-0.97-0.027-0.019-7.831 2.428-0.057c2.668-7e-3 4.005 1.273 4.011 3.838 4e-3 1.314-0.399 2.333-1.207 3.057m-2.891-5.844c-0.34 1e-3 -0.698 9e-3 -1.073 0.025l0.015 5.715c0.283 0.04 0.598 0.061 0.942 0.06 0.882-1e-3 1.569-0.236 2.064-0.703 0.536-0.504 0.803-1.241 0.8-2.209-4e-3 -1.929-0.921-2.892-2.748-2.888" clip-path="url(#a)" fill="#58595B"/>
	<path d="m33.033 89.149c-0.54 0.592-1.235 0.888-2.086 0.891-1.76 4e-3 -2.641-0.97-2.647-2.923-1e-3 -0.886 0.257-1.617 0.779-2.192 0.531-0.592 1.227-0.888 2.086-0.891 0.816-1e-3 1.453 0.224 1.908 0.676 0.498 0.495 0.747 1.231 0.75 2.212 1e-3 0.897-0.262 1.64-0.79 2.227m-1.963-4.07c-0.412 1e-3 -0.754 0.153-1.026 0.456-0.305 0.346-0.458 0.83-0.456 1.454 3e-3 1.325 0.496 1.985 1.481 1.982 0.427 0 0.771-0.161 1.031-0.484 0.287-0.348 0.43-0.843 0.428-1.482-3e-3 -1.287-0.489-1.928-1.458-1.926" clip-path="url(#a)" fill="#58595B"/>
	<path d="m38.727 89.907-8e-3 -3.706c-3e-3 -0.768-0.291-1.151-0.866-1.15-0.432 1e-3 -0.791 0.201-1.077 0.603-0.287 0.403-0.43 0.896-0.428 1.483l7e-3 2.775-1.243 3e-3 -0.02-8.484 1.243-3e-3 5e-3 2.628c1e-3 0.495-0.031 0.883-0.099 1.163l0.023 0.012c0.37-0.807 1.022-1.213 1.961-1.214 1.146-3e-3 1.721 0.61 1.724 1.84l9e-3 4.047-1.231 3e-3z" clip-path="url(#a)" fill="#58595B"/>
	<path d="m44.828 89.893c-1e-3 -0.451 0.019-0.807 0.06-1.067l-0.011-0.012c-0.324 0.795-0.963 1.194-1.916 1.197-0.492 1e-3 -0.886-0.147-1.182-0.446-0.292-0.291-0.439-0.675-0.44-1.151-1e-3 -0.643 0.3-1.139 0.904-1.489 0.594-0.342 1.426-0.515 2.497-0.516l-1e-3 -0.244c-1e-3 -0.42-0.084-0.723-0.252-0.908-0.179-0.192-0.475-0.288-0.891-0.287-0.564 1e-3 -1.145 0.137-1.742 0.407l-0.223-0.965c0.676-0.269 1.389-0.406 2.138-0.407 0.806-3e-3 1.385 0.176 1.738 0.535 0.315 0.32 0.472 0.814 0.474 1.479l7e-3 2.287c1e-3 0.568 0.013 1.097 0.037 1.583l-1.197 4e-3zm-0.086-2.65c-1.465 3e-3 -2.196 0.342-2.194 1.015 0 0.227 0.072 0.412 0.212 0.556 0.148 0.147 0.342 0.22 0.579 0.22 0.404-1e-3 0.743-0.171 1.014-0.508 0.261-0.326 0.391-0.703 0.39-1.13v-0.153z" clip-path="url(#a)" fill="#58595B"/>
	<polygon points="55.072 89.868 55.064 86.344 51.351 86.353 51.361 89.878 50.095 89.88 50.076 82.036 51.342 82.033 51.349 85.275 55.061 85.266 55.053 82.025 56.307 82.021 56.326 89.866" clip-path="url(#a)" fill="#58595B"/>
	<path d="m59.193 82.832c-0.156 0.152-0.34 0.228-0.556 0.228-0.219 1e-3 -0.41-0.073-0.568-0.225-0.155-0.147-0.233-0.33-0.233-0.55-1e-3 -0.216 0.076-0.399 0.231-0.551 0.159-0.155 0.348-0.233 0.567-0.235 0.216 0 0.402 0.077 0.558 0.232 0.159 0.151 0.239 0.334 0.239 0.55 0 0.212-0.08 0.396-0.238 0.551m-1.164 7.029-0.013-5.778 1.242-3e-3 0.015 5.778-1.244 3e-3z" clip-path="url(#a)" fill="#58595B"/>
	<path d="m63.851 89.433c-0.456 0.354-1.062 0.53-1.814 0.532-0.48 0-0.908-0.051-1.283-0.156l0.095-1.062c0.378 0.147 0.8 0.22 1.265 0.219 0.33-1e-3 0.595-0.068 0.794-0.2 0.205-0.141 0.307-0.327 0.305-0.558 0-0.256-0.131-0.458-0.392-0.6-0.076-0.041-0.367-0.148-0.875-0.322-0.844-0.289-1.267-0.8-1.269-1.535-1e-3 -0.53 0.192-0.954 0.582-1.273 0.415-0.346 1.007-0.519 1.774-0.52 0.352 0 0.715 0.036 1.09 0.111l-0.065 0.999c-0.348-0.105-0.714-0.157-1.095-0.156-0.674 1e-3 -1.01 0.241-1.009 0.723 0 0.245 0.135 0.442 0.404 0.59 0.072 0.037 0.366 0.148 0.88 0.332 0.851 0.3 1.279 0.808 1.281 1.523-1e-3 0.553-0.223 1.004-0.668 1.353" clip-path="url(#a)" fill="#58595B"/>
	<path d="m68.982 89.801c-0.398 0.092-0.8 0.139-1.209 0.139-0.61 1e-3 -1.031-0.129-1.266-0.394-0.224-0.257-0.336-0.714-0.339-1.367l-7e-3 -3.15-1.107 3e-3 -3e-3 -0.965 1.107-3e-3 -5e-3 -1.834 1.243-0.343 4e-3 2.173 1.51-3e-3 3e-3 0.965-1.51 3e-3 7e-3 2.771c1e-3 0.427 0.055 0.716 0.161 0.867 0.105 0.148 0.304 0.221 0.596 0.22 0.227 0 0.463-0.028 0.708-0.081l0.107 0.999z" clip-path="url(#a)" fill="#58595B"/>
	<path d="m74.447 89.05c-0.54 0.592-1.235 0.888-2.086 0.891-1.76 4e-3 -2.641-0.97-2.647-2.923-3e-3 -0.884 0.257-1.617 0.778-2.192 0.532-0.592 1.227-0.888 2.086-0.891 0.818-1e-3 1.454 0.224 1.909 0.676 0.498 0.495 0.747 1.231 0.748 2.212 3e-3 0.897-0.26 1.64-0.788 2.227m-1.963-4.07c-0.412 1e-3 -0.755 0.153-1.027 0.456-0.305 0.346-0.458 0.83-0.455 1.454 3e-3 1.325 0.496 1.985 1.479 1.982 0.428 0 0.772-0.161 1.031-0.484 0.287-0.348 0.43-0.843 0.428-1.482-2e-3 -1.287-0.487-1.928-1.456-1.926" clip-path="url(#a)" fill="#58595B"/>
	<path d="m79.419 85.151c-1.139-0.217-1.706 0.555-1.702 2.313l5e-3 2.351-1.243 3e-3 -0.013-5.778 1.186-3e-3c1e-3 0.431-0.037 0.856-0.116 1.277h0.028c0.331-1.022 0.967-1.483 1.91-1.383l-0.055 1.22z" clip-path="url(#a)" fill="#58595B"/>
	<path d="m81.821 82.778c-0.156 0.152-0.34 0.228-0.556 0.228-0.219 1e-3 -0.41-0.073-0.568-0.225-0.155-0.147-0.233-0.33-0.235-0.55 0-0.216 0.077-0.399 0.232-0.551 0.159-0.155 0.348-0.233 0.567-0.235 0.216 0 0.402 0.077 0.558 0.232 0.159 0.151 0.239 0.334 0.239 0.55-1e-3 0.212-0.079 0.396-0.237 0.551m-1.165 7.029-0.013-5.778 1.242-3e-3 0.015 5.778-1.244 3e-3z" clip-path="url(#a)" fill="#58595B"/>
	<path d="m87.484 89.592c-0.468 0.195-1.027 0.292-1.673 0.293-1.714 4e-3 -2.573-0.923-2.579-2.78-1e-3 -0.958 0.232-1.716 0.704-2.277 0.506-0.599 1.226-0.9 2.16-0.903 0.526-1e-3 0.975 0.072 1.346 0.219l-0.201 1.067c-0.41-0.161-0.812-0.241-1.21-0.24-0.48 0-0.852 0.184-1.117 0.552-0.256 0.352-0.384 0.831-0.383 1.437 4e-3 1.242 0.51 1.861 1.521 1.858 0.476-1e-3 0.89-0.088 1.242-0.259l0.19 1.033z" clip-path="url(#a)" fill="#58595B"/>
	<path d="m91.831 89.78c-1e-3 -0.45 0.02-0.806 0.06-1.066l-0.011-0.012c-0.324 0.795-0.963 1.194-1.916 1.197-0.492 1e-3 -0.886-0.147-1.182-0.446-0.292-0.291-0.439-0.675-0.439-1.151-3e-3 -0.643 0.299-1.141 0.903-1.489 0.594-0.343 1.426-0.515 2.497-0.516l-1e-3 -0.245c0-0.42-0.084-0.722-0.252-0.907-0.177-0.192-0.475-0.288-0.891-0.287-0.564 1e-3 -1.145 0.137-1.742 0.407l-0.222-0.965c0.676-0.269 1.389-0.406 2.138-0.408 0.806-1e-3 1.386 0.177 1.738 0.536 0.315 0.32 0.472 0.814 0.475 1.479l5e-3 2.287c1e-3 0.568 0.013 1.097 0.037 1.583l-1.197 3e-3zm-0.085-2.649c-1.465 3e-3 -2.196 0.342-2.194 1.015 1e-3 0.227 0.072 0.412 0.212 0.556 0.148 0.147 0.342 0.22 0.579 0.219 0.406 0 0.743-0.169 1.015-0.507 0.26-0.326 0.39-0.703 0.388-1.13v-0.153z" clip-path="url(#a)" fill="#58595B"/>
		<rect transform="matrix(.0024 1 -1 .0024 180.78 -10.151)" x="91.237" y="84.908" width="8.484" height="1.243" clip-path="url(#a)" fill="#58595B"/>
	<path d="m105.4 88.766c-0.77 0.687-1.813 1.031-3.13 1.035-0.318 0-0.69-5e-3 -1.113-0.015l-0.971-0.027-0.017-7.832 2.428-0.056c2.667-7e-3 4.005 1.273 4.01 3.838 5e-3 1.314-0.4 2.333-1.207 3.057m-2.89-5.844c-0.34 0-0.698 9e-3 -1.073 0.025l0.013 5.715c0.284 0.04 0.598 0.061 0.943 0.06 0.88-1e-3 1.569-0.236 2.064-0.703 0.535-0.504 0.803-1.241 0.8-2.209-3e-3 -1.93-0.92-2.892-2.747-2.888" clip-path="url(#a)" fill="#58595B"/>
	<path d="m109.18 82.713c-0.156 0.152-0.34 0.228-0.556 0.228-0.22 1e-3 -0.41-0.075-0.568-0.225-0.156-0.147-0.233-0.331-0.235-0.55 0-0.216 0.077-0.4 0.232-0.551 0.159-0.155 0.348-0.235 0.567-0.235 0.216 0 0.4 0.077 0.558 0.232 0.159 0.151 0.239 0.334 0.239 0.55 0 0.212-0.079 0.396-0.237 0.551m-1.164 7.029-0.013-5.778 1.242-3e-3 0.015 5.778-1.244 3e-3z" clip-path="url(#a)" fill="#58595B"/>
	<path d="m114.84 89.527c-0.47 0.195-1.027 0.292-1.673 0.293-1.714 4e-3 -2.575-0.923-2.579-2.78-1e-3 -0.958 0.232-1.717 0.704-2.279 0.506-0.599 1.226-0.899 2.16-0.902 0.526-1e-3 0.974 0.072 1.346 0.219l-0.201 1.067c-0.41-0.161-0.812-0.241-1.21-0.241-0.48 1e-3 -0.854 0.185-1.117 0.554-0.257 0.352-0.384 0.831-0.383 1.437 4e-3 1.242 0.51 1.86 1.521 1.858 0.476-1e-3 0.89-0.088 1.242-0.259l0.19 1.033z" clip-path="url(#a)" fill="#58595B"/>
	<path d="m119.19 89.681c-0.398 0.092-0.8 0.139-1.209 0.139-0.61 1e-3 -1.031-0.129-1.266-0.394-0.224-0.257-0.338-0.714-0.339-1.367l-7e-3 -3.15-1.107 3e-3 -3e-3 -0.965 1.107-3e-3 -5e-3 -1.834 1.243-0.343 4e-3 2.173 1.51-3e-3 3e-3 0.965-1.51 3e-3 7e-3 2.771c1e-3 0.427 0.055 0.716 0.161 0.867 0.105 0.148 0.304 0.221 0.596 0.22 0.227 0 0.463-0.028 0.708-0.081l0.107 0.999z" clip-path="url(#a)" fill="#58595B"/>
	<path d="m121.66 82.683c-0.155 0.152-0.34 0.228-0.555 0.228-0.22 1e-3 -0.41-0.073-0.568-0.225-0.156-0.147-0.233-0.33-0.235-0.55 0-0.216 0.077-0.399 0.232-0.551 0.159-0.155 0.347-0.233 0.567-0.235 0.216 0 0.4 0.077 0.556 0.232 0.16 0.151 0.24 0.334 0.24 0.55 0 0.212-0.079 0.396-0.237 0.551m-1.164 7.029-0.013-5.778 1.242-3e-3 0.015 5.778-1.244 3e-3z" clip-path="url(#a)" fill="#58595B"/>
	<path d="m127.79 88.923c-0.542 0.592-1.235 0.888-2.086 0.89-1.76 5e-3 -2.641-0.97-2.647-2.922-3e-3 -0.886 0.257-1.617 0.778-2.193 0.532-0.591 1.227-0.888 2.086-0.89 0.818-3e-3 1.454 0.224 1.909 0.676 0.496 0.495 0.747 1.231 0.748 2.212 3e-3 0.897-0.261 1.64-0.788 2.227m-1.963-4.07c-0.414 0-0.755 0.153-1.027 0.456-0.305 0.346-0.456 0.83-0.455 1.454 3e-3 1.323 0.495 1.985 1.479 1.982 0.427-1e-3 0.772-0.161 1.031-0.484 0.287-0.35 0.43-0.843 0.428-1.482-2e-3 -1.287-0.487-1.929-1.456-1.926" clip-path="url(#a)" fill="#58595B"/>
	<path d="m133.44 89.681-9e-3 -3.706c-1e-3 -0.768-0.291-1.151-0.864-1.15-0.432 0-0.791 0.201-1.078 0.603-0.287 0.403-0.428 0.896-0.427 1.483l7e-3 2.775-1.243 3e-3 -0.013-5.778 1.186-3e-3c0 0.459-0.025 0.839-0.077 1.142h0.012c0.375-0.838 1.045-1.258 2.006-1.259 1.146-3e-3 1.721 0.61 1.724 1.84l9e-3 4.047-1.233 3e-3z" clip-path="url(#a)" fill="#58595B"/>
	<path d="m139.54 89.666c-1e-3 -0.45 0.019-0.806 0.06-1.066l-0.011-0.012c-0.324 0.795-0.962 1.194-1.916 1.197-0.492 1e-3 -0.886-0.147-1.182-0.446-0.292-0.291-0.438-0.675-0.439-1.151-1e-3 -0.643 0.299-1.141 0.904-1.489 0.592-0.343 1.425-0.515 2.496-0.516l-1e-3 -0.245c0-0.419-0.084-0.722-0.251-0.907-0.18-0.192-0.476-0.288-0.892-0.287-0.564 1e-3 -1.145 0.137-1.742 0.407l-0.223-0.965c0.676-0.269 1.389-0.406 2.138-0.408 0.806-1e-3 1.386 0.177 1.738 0.536 0.315 0.32 0.474 0.814 0.475 1.479l5e-3 2.287c1e-3 0.568 0.013 1.097 0.037 1.583l-1.196 3e-3zm-0.085-2.65c-1.465 3e-3 -2.196 0.342-2.194 1.015 1e-3 0.227 0.072 0.412 0.212 0.556 0.148 0.147 0.342 0.22 0.579 0.219 0.404 0 0.743-0.169 1.015-0.507 0.26-0.326 0.39-0.703 0.388-1.13v-0.153z" clip-path="url(#a)" fill="#58595B"/>
	<path d="m145.41 84.993c-1.139-0.217-1.706 0.555-1.702 2.313l5e-3 2.351-1.243 3e-3 -0.013-5.778 1.186-3e-3c1e-3 0.431-0.037 0.856-0.116 1.277h0.028c0.33-1.022 0.967-1.483 1.91-1.383l-0.055 1.22z" clip-path="url(#a)" fill="#58595B"/>
	<path d="m149.24 90.052c-0.354 0.947-0.746 1.609-1.175 1.984-0.412 0.36-0.952 0.542-1.622 0.543-0.224 1e-3 -0.468-0.021-0.732-0.067l0.139-1.085c0.208 0.064 0.446 0.096 0.711 0.096 0.635-3e-3 1.113-0.439 1.431-1.309l0.209-0.568-2.176-5.772 1.385-4e-3 0.959 2.637c0.179 0.536 0.332 1.039 0.458 1.509h0.012c0.104-0.428 0.292-1.029 0.563-1.801l0.823-2.352 1.334-3e-3 -2.319 6.192z" clip-path="url(#a)" fill="#58595B"/>
	<path d="m159.07 88.848c-0.54 0.592-1.235 0.888-2.086 0.891-1.76 4e-3 -2.641-0.97-2.647-2.923-3e-3 -0.886 0.257-1.617 0.778-2.192 0.532-0.592 1.227-0.888 2.086-0.891 0.818-1e-3 1.454 0.224 1.909 0.676 0.496 0.495 0.747 1.231 0.748 2.212 4e-3 0.897-0.261 1.64-0.788 2.227m-1.962-4.07c-0.414 1e-3 -0.755 0.153-1.027 0.456-0.305 0.346-0.456 0.83-0.455 1.454 3e-3 1.325 0.496 1.985 1.481 1.982 0.427 0 0.771-0.161 1.031-0.484 0.285-0.348 0.43-0.843 0.427-1.482-3e-3 -1.287-0.488-1.928-1.457-1.926" clip-path="url(#a)" fill="#58595B"/>
	<path d="m164.48 82.166c-0.243-0.075-0.506-0.112-0.79-0.111-0.719 1e-3 -1.077 0.439-1.074 1.313v0.466l1.499-3e-3 1e-3 0.965-1.498 3e-3 0.012 4.813-1.233 3e-3 -0.011-4.812-1.107 3e-3 -1e-3 -0.966 1.106-3e-3 -1e-3 -0.443c-4e-3 -1.561 0.746-2.345 2.248-2.349 0.326 0 0.639 0.033 0.942 0.1l-0.093 1.021z" clip-path="url(#a)" fill="#58595B"/>
	<path d="m172.28 89.588-0.594-1.729-3.184 8e-3 -0.603 1.732-1.278 4e-3 2.773-7.851 1.454-4e-3 2.839 7.837-1.407 3e-3zm-1.869-5.398c-0.156-0.466-0.267-0.823-0.332-1.073h-0.023c-0.085 0.356-0.189 0.711-0.309 1.063l-0.935 2.675 2.548-7e-3 -0.949-2.658z" clip-path="url(#a)" fill="#58595B"/>
	<path d="m177.56 84.916c-1.139-0.217-1.708 0.555-1.702 2.313l5e-3 2.351-1.243 3e-3 -0.013-5.778 1.186-3e-3c1e-3 0.431-0.039 0.858-0.116 1.278l0.028-1e-3c0.331-1.022 0.967-1.483 1.91-1.383l-0.055 1.22z" clip-path="url(#a)" fill="#58595B"/>
	<path d="m181.86 89.565c-1e-3 -0.45 0.02-0.806 0.06-1.066l-0.011-0.012c-0.324 0.795-0.963 1.194-1.916 1.197-0.492 1e-3 -0.887-0.147-1.182-0.446-0.292-0.291-0.439-0.675-0.44-1.151-1e-3 -0.643 0.3-1.141 0.904-1.489 0.594-0.343 1.425-0.515 2.496-0.516v-0.245c-1e-3 -0.42-0.085-0.722-0.252-0.907-0.177-0.192-0.476-0.288-0.891-0.287-0.564 1e-3 -1.145 0.137-1.742 0.407l-0.224-0.965c0.678-0.269 1.39-0.406 2.14-0.408 0.806-1e-3 1.385 0.177 1.738 0.536 0.313 0.32 0.472 0.814 0.474 1.479l7e-3 2.287c1e-3 0.568 0.013 1.097 0.037 1.583l-1.198 3e-3zm-0.085-2.65c-1.465 3e-3 -2.196 0.342-2.194 1.015 0 0.227 0.071 0.412 0.212 0.556 0.148 0.147 0.34 0.22 0.579 0.219 0.404 0 0.743-0.169 1.014-0.507 0.261-0.326 0.391-0.703 0.39-1.13v-0.153z" clip-path="url(#a)" fill="#58595B"/>
	<path d="m189.09 88.759c-0.547 0.588-1.299 0.883-2.257 0.884-0.742 3e-3 -1.426-0.077-2.054-0.239l-0.02-8.331 1.242-3e-3 7e-3 2.661c1e-3 0.435-0.032 0.804-0.099 1.107h0.023c0.327-0.784 0.938-1.177 1.83-1.179 0.684-1e-3 1.21 0.231 1.579 0.7 0.368 0.468 0.552 1.139 0.555 2.013 3e-3 1.005-0.267 1.8-0.806 2.387m-1.65-4.065c-0.439 0-0.792 0.223-1.059 0.667-0.245 0.398-0.367 0.862-0.366 1.39l4e-3 1.794c0.245 0.075 0.55 0.112 0.908 0.111 1.109-3e-3 1.661-0.724 1.657-2.166-2e-3 -1.199-0.383-1.797-1.144-1.796" clip-path="url(#a)" fill="#58595B"/>
	<path d="m192.34 82.514c-0.155 0.152-0.34 0.228-0.555 0.228-0.22 1e-3 -0.41-0.073-0.568-0.225-0.155-0.147-0.233-0.331-0.235-0.55 0-0.216 0.077-0.4 0.232-0.551 0.159-0.155 0.347-0.233 0.567-0.235 0.216 0 0.402 0.077 0.556 0.232 0.16 0.151 0.24 0.334 0.24 0.55 0 0.212-0.079 0.397-0.237 0.551m-1.164 7.029-0.013-5.778 1.242-3e-3 0.015 5.778-1.244 3e-3z" clip-path="url(#a)" fill="#58595B"/>
	<path d="m198 89.328c-0.47 0.195-1.027 0.292-1.673 0.293-1.714 4e-3 -2.573-0.923-2.579-2.78-1e-3 -0.958 0.233-1.717 0.706-2.277 0.504-0.6 1.225-0.9 2.16-0.903 0.526-1e-3 0.974 0.072 1.346 0.219l-0.203 1.067c-0.408-0.161-0.812-0.241-1.21-0.241-0.48 1e-3 -0.852 0.185-1.117 0.554-0.256 0.352-0.384 0.831-0.382 1.437 3e-3 1.242 0.51 1.86 1.519 1.858 0.476-1e-3 0.891-0.088 1.242-0.259l0.191 1.032z" clip-path="url(#a)" fill="#58595B"/>
	<path d="m223.53 73.49 2.184-2.192-2.194-2.184-2.193-2.188 2.182-2.194 10.923-10.97 1.934-1.944 0.249-0.251 1.266-1.274-4e-3 -1.579v-0.256l-7e-3 -2.835-8e-3 -3.099-3e-3 -0.986v-9e-3l-1e-3 -0.787-9e-3 -3.586-1.265 1.278-0.997 0.999-0.826 0.828-0.363 0.364-2.184 2.194-2.185 2.196-2.185 2.194-15.288 15.361-2.181 2.192-2.185 2.194 10.972 10.922 4.368-4.388zm-10.962-6.542 2.185-2.194 17.472-17.554 2.185-2.194 0.363-0.367 1e-3 0.991 0.011 3.388-3e-3 1e-3 -0.362 0.363-15.288 15.36-2.185 2.194 2.196 2.186 2.193 2.185-2.182 2.192-6.586-6.551z" clip-path="url(#a)" fill="#CEB23A"/>
	<path d="m284.8 64.587-2.194-2.182-17.555-17.472-4.387-4.369-0.366-0.362-0.83-0.827-0.998-0.993-1.274-1.271 8e-3 3.586 1e-3 0.787v8e-3l3e-3 0.986 8e-3 3.099 7e-3 2.835v0.256l4e-3 1.579 1.274 1.269 0.248 0.248 1.946 1.936 2.192 2.184 2.196 2.185 4.388 4.368 2.197 2.181 2.196 2.185-2.186 2.197-2.188 2.194 2.198 2.181 2.194 2.185 2.195 2.184 2.182-2.194 8.734-8.779-2.193-2.184zm-8.733 8.778-2.194-2.181 2.181-2.194 2.185-2.197-2.196-2.184-2.19-2.182-8.781-8.737-2.196-2.184-2.192-2.185-0.367-0.362v-1e-3l-8e-3 -3.388-1e-3 -0.991 0.366 0.366 2.192 2.185 2.196 2.181 13.167 13.106 2.196 2.182 2.192 2.182-6.55 6.584z" clip-path="url(#a)" fill="#CEB23A"/>
	<path d="m269.51 75.573-2.196-2.188-2.181 2.198-2.184 2.192-2.196-2.185-2.192-2.184-2.196-2.181-2.193-2.185-2.197-2.186-2.193-2.184-2.196-2.182-2.192-2.185-1.287-1.281-5e-3 -1.814-4e-3 -3.091-0.011-3.099-8e-3 -3.092-5e-3 -3.1-8e-3 -3.092v-4e-3l-7e-3 -2.653-7e-3 -3.686 1.277-1.286-4e-3 -1.812 1.278-1.283-8e-3 -3.095-0.017-6.189-0.019-7.935c-0.528-0.312-0.887-0.882-0.888-1.542-3e-3 -0.804 0.532-1.481 1.263-1.71l-0.02-8.248-5e-3 -2.058v-0.231c-0.143 0.055-0.275 0.135-0.388 0.232h-9e-3v0.011c-0.248 0.224-0.41 0.544-0.408 0.902 1e-3 0.292 0.109 0.556 0.276 0.764-0.852 5.524-5.075 9.501-5.075 9.501l2.17 11.403-2.467 2.475 2.493 2.476v0.156h3e-3l4e-3 1.814-1.282 1.285 5e-3 1.814-1.251 1.257-0.028-8e-3v0.032l9e-3 4.528 8e-3 3.096 8e-3 3.094 7e-3 3.096 8e-3 3.096 8e-3 3.099 7e-3 3.091 8e-3 3.098 2.196 2.185 2.194 2.182 2.192 2.184 2.196 2.186 2.193 2.185 2.197 2.181 2.193 2.184 2.196 2.184 2.194 2.185-2.185 2.196-4.368 4.388-2.196-2.185 2.185-2.194 2.184-2.194-2.194-2.185-2.185 2.196-2.184 2.194-2.185 2.194 2.196 2.184 2.193 2.186-2.182 2.19-2.185 2.196-2.193-2.185-2.193-2.181 2.184-2.196 2.181-2.194-2.192-2.184-2.194-2.185-2.196-2.184-2.185 2.194 2.196 2.185 2.196 2.184-2.186 2.194-2.194-2.184-2.192-2.184-2.194-2.185 2.185-2.196 2.18-2.19 2.185-2.198 2.186-2.192 2.182-2.194-2.193-2.186-2.186 2.197-2.185 2.194-2.18 2.192-2.185 2.198-2.185 2.19-2.197-2.182-2.192-2.185-2.184 2.194-2.185 2.194-2.182 2.194 2.193 2.185 2.194 2.184 2.196 2.185 2.184-2.194 2.184-2.196 2.196 2.185-2.185 2.194-2.184 2.196 2.194 2.181 2.194 2.185 2.196 2.181 2.192 2.185 2.195 2.184 2.186-2.194-2.197-2.185-2.193-2.182-2.193-2.184-2.196-2.181 2.185-2.196 2.193 2.185 2.193 2.181 4.39 4.366 2.193 2.185 2.184-2.196 2.195 2.185 2.196 2.184 10.916-10.968-2.19-2.185-2.185 2.196-6.55 6.579-2.197-2.182 4.37-4.386 4.366-4.39 2.185-2.194 4.386 4.368 2.185-2.194 4.368-4.388-2.195-2.185-2.196-2.182zm-41.577 6.665-2.196-2.184 2.185-2.194 2.196 2.184-2.185 2.194zm39.403-0.093-2.193-2.185 2.182-2.194 2.196 2.184-2.185 2.195z" clip-path="url(#a)" fill="#CEB23A"/>
	<path d="m249.86 99.699-2.196-2.184-2.181 2.194-2.184 2.196 2.193 2.182 2.193 2.186 2.185-2.196 2.182-2.194-2.192-2.184zm-2.181 3.991c-0.993 1e-3 -1.798-0.8-1.801-1.792-3e-3 -0.991 0.8-1.798 1.793-1.801 0.989-3e-3 1.801 0.8 1.804 1.792 2e-3 0.993-0.806 1.798-1.796 1.801" clip-path="url(#a)" fill="#CEB23A"/>
	<path d="m249.26 12.242c1e-3 0.652-0.35 1.223-0.874 1.538l0.017 7.941 0.013 6.189 7e-3 3.096 1.289 1.277 4e-3 1.812 1.285 1.279 9e-3 3.687 5e-3 2.653v1e-3l8e-3 3.094 7e-3 3.099 8e-3 3.094 8e-3 3.099 7e-3 3.09 5e-3 1.802-1.293 1.298 2.193 2.178 2.18-2.188h0.017l-8e-3 -3.099-8e-3 -3.09-7e-3 -3.099-8e-3 -3.095-7e-3 -3.098-7e-3 -3.094-8e-3 -3.095-0.011-4.528v-0.033l-0.028 8e-3 -1.258-1.25-4e-3 -1.814-1.286-1.278-4e-3 -1.814v-0.156l2.48-2.488-2.479-2.464 2.116-11.414s-4.241-3.955-5.121-9.476c0.169-0.209 0.276-0.472 0.276-0.766-1e-3 -0.356-0.164-0.676-0.415-0.898v-0.011h-8e-3c-0.113-0.096-0.243-0.176-0.39-0.229v0.23l5e-3 2.058 0.02 8.254c0.731 0.226 1.264 0.898 1.265 1.7" clip-path="url(#a)" fill="#CEB23A"/>
</svg>
