<?xml version="1.0" encoding="utf-8"?>
<!-- Generator: Adobe Illustrator 21.0.0, SVG Export Plug-In . SVG Version: 6.00 Build 0)  -->
<svg version="1.1" id="Layer_1" xmlns="http://www.w3.org/2000/svg" xmlns:xlink="http://www.w3.org/1999/xlink" x="0px" y="0px"
	 viewBox="0 0 21 21" style="enable-background:new 0 0 21 21;" xml:space="preserve">
<style type="text/css">
	.st0{fill-rule:evenodd;clip-rule:evenodd;}
</style>
<g>
	<polygon class="st0" points="16.1,17.8 11.3,17.8 9.7,17.8 3.2,17.8 3.2,4.8 8.1,4.8 11.3,1.6 1.6,1.6 0,3.2 0,19.4 1.7,21 
		10.5,21 17.6,21 19.4,19.4 19.4,11.3 16.1,14.5 	"/>
	<polygon class="st0" points="6.4,14.6 10.5,14 7,10.5 	"/>
	<rect x="8.6" y="5.7" transform="matrix(0.7071 -0.7071 0.7071 0.7071 -1.9845 11.4734)" class="st0" width="8.4" height="4.9"/>
	<rect x="16.5" y="0.4" transform="matrix(0.7071 -0.7071 0.7071 0.7071 3.2884 13.6573)" class="st0" width="3.2" height="4.9"/>
</g>
</svg>
