<?xml version="1.0" encoding="utf-8"?>
<!-- Generator: Adobe Illustrator 21.0.0, SVG Export Plug-In . SVG Version: 6.00 Build 0)  -->
<svg version="1.1" id="Layer_1" xmlns="http://www.w3.org/2000/svg" xmlns:xlink="http://www.w3.org/1999/xlink" x="0px" y="0px"
	 viewBox="0 0 21 21" style="enable-background:new 0 0 21 21;" xml:space="preserve">
<g>
	<path d="M10.8,11.9c-0.5-0.3-1.4-1.2-1.4-1.7c0-0.6,0.2-0.9,1.1-1.6c0.9-0.7,1.5-1.5,1.5-2.7c0-1.4-0.6-3.1-1.7-3.1h2L13,2
		c0,0-4,0-5.4,0C5.2,2,2.9,3.7,2.9,5.9c0,2.2,1.7,3.9,4.2,3.9c0.2,0,0.3,0,0.5-0.1c-0.2,0.3-0.3,0.6-0.3,1c0,0.6,0.3,1.1,0.7,1.5
		c-0.3,0-0.6,0-0.9,0c-3,0-5.4,1.9-5.4,3.9c0,2,2.6,3.2,5.6,3.2c3.5,0,5.4-2,5.4-3.9C12.7,13.9,12.2,12.9,10.8,11.9z M7.9,9.2
		c-1.4,0-2.8-1.6-3-3.4C4.6,3.9,5.6,2.5,7,2.5c1.4,0,2.8,1.5,3,3.4C10.2,7.7,9.3,9.2,7.9,9.2z M7.3,18.5c-2.1,0-3.6-1.3-3.6-2.9
		c0-1.6,1.9-2.9,4-2.8c0.5,0,0.9,0.1,1.4,0.2c1.1,0.8,2,1.2,2.2,2.1c0,0.2,0.1,0.4,0.1,0.6C11.3,17.3,10.3,18.5,7.3,18.5z"/>
	<polygon points="17.4,9 17.4,6.3 15.6,6.3 15.6,9 13,9 13,10.7 15.6,10.7 15.6,13.3 17.4,13.3 17.4,10.7 20,10.7 20,9 	"/>
</g>
</svg>
