<?xml version="1.0" encoding="utf-8"?>
<!-- Generator: Adobe Illustrator 21.0.0, SVG Export Plug-In . SVG Version: 6.00 Build 0)  -->
<svg version="1.1" id="Layer_1" xmlns="http://www.w3.org/2000/svg" xmlns:xlink="http://www.w3.org/1999/xlink" x="0px" y="0px"
	 viewBox="0 0 21 21" style="enable-background:new 0 0 21 21;" xml:space="preserve">
<path d="M11.1,3.1c0,1.3-0.3,2.4-0.6,3.5c-0.1,0.4-0.3,0.8-0.4,1.2c0,0.1,0,0.2,0,0.2c0.6,1.3,1.3,2.5,2.3,3.5
	c0.4,0.4,0.9,0.8,1.4,1.1c0.1,0.1,0.2,0.1,0.3,0.1c1.4-0.2,2.8-0.3,4.1-0.1c0.6,0.1,1.1,0.2,1.6,0.5c0.4,0.3,0.7,0.7,0.7,1.2
	c0,0.4-0.2,0.7-0.5,0.9c-0.3,0.2-0.6,0.3-0.9,0.3c-1,0.1-2-0.2-3-0.6c-0.7-0.3-1.5-0.7-2.2-1c-0.2-0.1-0.3-0.1-0.5-0.1
	c-2.4,0.5-4.8,1.2-7,2.2c-0.1,0-0.2,0.1-0.2,0.2c-0.7,1.1-1.3,2.3-2.2,3.2c-0.3,0.4-0.7,0.7-1.2,1c-0.7,0.4-1.4,0.2-1.8-0.4
	c-0.3-0.4-0.3-0.9-0.1-1.4c0.3-0.6,0.7-1,1.2-1.4c1-0.8,2.1-1.4,3.3-2c0.1-0.1,0.2-0.2,0.3-0.3c1.2-2.3,2.3-4.6,3.2-7
	c0.1-0.1,0.1-0.3,0-0.4c-0.4-1-0.8-2.1-0.9-3.2C7.8,3.7,7.7,2.9,8.1,2c0.4-1,1.5-1.4,2.3-0.8C10.8,1.6,10.9,2,11,2.5
	C11.1,2.7,11.1,3,11.1,3.1z M9.6,9.4c-0.8,1.8-1.6,3.5-2.4,5.3c1.7-0.7,3.5-1.2,5.3-1.7C11.2,12,10.3,10.7,9.6,9.4z M9.4,6.3
	C9.4,6.3,9.4,6.3,9.4,6.3c0.4-1,0.6-2.1,0.6-3.1c0-0.3-0.1-0.6-0.1-0.8c0-0.1-0.1-0.3-0.3-0.3c-0.2,0-0.4,0-0.5,0.2
	C9.1,2.4,9,2.6,9,2.7C8.8,3.4,8.9,4.1,9,4.7C9.1,5.3,9.3,5.8,9.4,6.3z M15.6,13.6C15.6,13.6,15.6,13.7,15.6,13.6
	c0.7,0.4,1.5,0.7,2.3,0.8c0.5,0.1,0.9,0.1,1.4,0c0.1,0,0.2-0.1,0.2-0.1c0-0.1-0.1-0.2-0.1-0.2c-0.2-0.1-0.4-0.2-0.6-0.3
	c-0.7-0.2-1.5-0.2-2.3-0.2C16.2,13.6,15.9,13.6,15.6,13.6z M4.5,17.1c-0.8,0.4-1.6,0.9-2.2,1.6c-0.2,0.2-0.3,0.4-0.4,0.6
	c0,0.1,0,0.2,0,0.3c0.1,0.1,0.2,0.1,0.3,0.1c0.2,0,0.3-0.1,0.4-0.2C3.4,18.8,4,18,4.5,17.1z"/>
</svg>
