<?xml version="1.0" encoding="utf-8"?>
<!-- Generator: Adobe Illustrator 21.0.0, SVG Export Plug-In . SVG Version: 6.00 Build 0)  -->
<svg version="1.1" id="Layer_1" xmlns="http://www.w3.org/2000/svg" xmlns:xlink="http://www.w3.org/1999/xlink" x="0px" y="0px"
	 viewBox="0 0 21 21" style="enable-background:new 0 0 21 21;" xml:space="preserve">
<path d="M18.8,7.7V4.9C18.8,3.9,18,3,17,3H7.7H1.9C0.9,3,0,3.9,0,4.9v8.5c0,1,0.9,1.9,1.9,1.9h9.4c1,1.3,2.5,2.2,4.3,2.2
	c3,0,5.4-2.4,5.4-5.4C21,10.3,20.1,8.7,18.8,7.7z M10.2,12c0,0.6,0.1,1.2,0.3,1.8H1.9c-0.3,0-0.4-0.2-0.4-0.5V4.4c0,0,5.6,0,5.9,0
	H17c0.3,0,0.4,0.2,0.4,0.4V7c-0.6-0.2-1.2-0.3-1.8-0.3C12.6,6.6,10.2,9.1,10.2,12z M17.8,12.8h-4.3c-0.4,0-0.7-0.3-0.8-0.7
	c0-0.4,0.3-0.7,0.7-0.8c0,0,0,0,0.1,0h4.3c0,0,0,0,0,0c0.4,0,0.7,0.3,0.7,0.7C18.5,12.4,18.2,12.8,17.8,12.8z"/>
</svg>
