<?xml version="1.0" encoding="utf-8"?>
<!-- Generator: Adobe Illustrator 21.0.0, SVG Export Plug-In . SVG Version: 6.00 Build 0)  -->
<svg version="1.1" id="Layer_1" xmlns="http://www.w3.org/2000/svg" xmlns:xlink="http://www.w3.org/1999/xlink" x="0px" y="0px"
	 viewBox="0 0 21 10" style="enable-background:new 0 0 21 10;" xml:space="preserve">
<g>
	<path d="M18,0.7c-1.7,0-3.4,0-5,0c0,0,0,0,0,0c-1.7,0-3.4,0-5,0c-0.6,0-1,0.4-1,1C7,3.8,7,5.9,7,8c0,0.6,0.4,1,1,1
		c1.4,0,2.8,0,4.2,0c2,0,3.9,0,5.9,0c0.3,0,0.6-0.1,0.8-0.4C18.9,8.4,19,8.2,19,8c0-2.1,0-4.2,0-6.3C19,1.1,18.5,0.7,18,0.7z M18,8
		c-3.3,0-6.7,0-10,0c0-2.1,0-4.2,0-6.3c3.4,0,6.7,0,10,0C18,3.8,18,5.9,18,8z"/>
	<path d="M3.5,1.8c0.7,0,1.3,0,2,0C5.8,1.8,6,1.6,6,1.4c0-0.2-0.2-0.3-0.5-0.3c-0.7,0-1.4,0-2.1,0c-0.7,0-1.4,0-2.1,0
		C1.1,1.1,0.9,1.3,1,1.5c0.1,0.2,0.2,0.2,0.4,0.2C2.1,1.8,2.8,1.8,3.5,1.8C3.5,1.8,3.5,1.8,3.5,1.8z"/>
	<path d="M5.6,3.9C5.8,3.9,6,3.8,6,3.6c0-0.2-0.2-0.3-0.4-0.3c-0.8,0-1.5,0-2.3,0C3,3.2,2.8,3.3,2.8,3.6c0,0.2,0.2,0.3,0.4,0.3
		c0.4,0,0.8,0,1.2,0C4.8,3.9,5.2,3.9,5.6,3.9z"/>
	<path d="M5.6,5.4c-0.4,0-0.7,0-1.1,0c-0.2,0-0.4,0.2-0.4,0.4c0,0.2,0.1,0.3,0.4,0.3c0.2,0,0.4,0,0.5,0c0.1,0,0.2,0,0.3,0
		s0.2,0,0.3,0C5.8,6.1,6,5.9,6,5.7C6,5.5,5.8,5.4,5.6,5.4z"/>
	<path d="M12.6,6.2c0.3,0.2,0.4,0.2,0.7,0c1.1-0.9,2.2-1.7,3.3-2.6c0.1-0.1,0.2-0.1,0.3-0.2C17,3.2,17,3,16.9,2.8
		c-0.1-0.2-0.4-0.2-0.6-0.1c-0.1,0-0.1,0.1-0.2,0.1c-1,0.8-2,1.6-3,2.3c-0.1,0.1-0.2,0.1-0.4,0c-0.7-0.6-1.4-1.1-2.1-1.7
		C10.3,3.2,10,3,9.7,2.7C9.5,2.6,9.4,2.6,9.2,2.7C9,2.7,8.9,2.9,8.9,3.1c0,0.2,0.1,0.3,0.2,0.4C10.3,4.4,11.4,5.3,12.6,6.2z"/>
</g>
</svg>
